<?xml version="1.0" encoding="utf-8"?>
<!-- Generator: Adobe Illustrator 15.0.0, SVG Export Plug-In . SVG Version: 6.00 Build 0)  -->
<!DOCTYPE svg PUBLIC "-//W3C//DTD SVG 1.1//EN" "http://www.w3.org/Graphics/SVG/1.1/DTD/svg11.dtd">
<svg version="1.1" id="Layer_1" xmlns="http://www.w3.org/2000/svg" xmlns:xlink="http://www.w3.org/1999/xlink" x="0px" y="0px"
	 width="612px" height="792px" viewBox="0 0 612 792" enable-background="new 0 0 612 792" xml:space="preserve">
<path fill="#FFFFFF" stroke="#000000" stroke-miterlimit="10" d="M182.113,460.385l-54.506,23.408l50.485,21.583l58.527-21.583
	L182.113,460.385L182.113,460.385z M100.172,489.646l-1.826,105.351l79.746,35.118V520.738L100.172,489.646L100.172,489.646z
	 M264.054,489.646l-72.068,27.439V620.24l72.068-29.266V489.646L264.054,489.646z M350.017,161.886l-54.87,23.409l50.849,21.587
	l58.527-21.587L350.017,161.886z M273.927,192.979v105.35l68.042,19.756l2.194-95.845L273.927,192.979L273.927,192.979z
	 M426.105,198.831l-64.385,27.435v103.523l64.385-29.266V198.831z M92.307,310.162l-54.501,23.414l50.48,21.583l58.527-21.583
	L92.307,310.162L92.307,310.162z M10.366,339.428L8.54,444.778l79.746,35.118V370.521L10.366,339.428z M174.243,339.428
	l-72.058,27.435v103.15l72.058-29.261V339.428L174.243,339.428z M267.894,306.261l-54.506,23.414l50.48,21.583l58.527-21.583
	L267.894,306.261L267.894,306.261z M185.957,335.527l-1.831,105.355L263.873,476V366.619L185.957,335.527z M349.835,335.527
	l-72.063,27.435v103.161l72.063-29.267V335.527z M521.52,161.886l-54.501,23.409l50.484,21.587l58.527-21.587L521.52,161.886z
	 M439.583,191.152l-1.826,105.35l79.746,35.114V222.24L439.583,191.152L439.583,191.152z M603.461,191.152l-72.059,27.435v103.155
	l72.059-29.261V191.152L603.461,191.152z"/>
</svg>
