<?xml version="1.0" encoding="utf-8"?>
<!-- Generator: Adobe Illustrator 15.0.0, SVG Export Plug-In . SVG Version: 6.00 Build 0)  -->
<!DOCTYPE svg PUBLIC "-//W3C//DTD SVG 1.1//EN" "http://www.w3.org/Graphics/SVG/1.1/DTD/svg11.dtd">
<svg version="1.1" id="Layer_1" xmlns="http://www.w3.org/2000/svg" xmlns:xlink="http://www.w3.org/1999/xlink" x="0px" y="0px"
	 width="612px" height="792px" viewBox="0 0 612 792" enable-background="new 0 0 612 792" xml:space="preserve">
<path fill="#FFFFFF" stroke="#000000" stroke-miterlimit="10" d="M41.884,94.781l48.075,539.722l215.721,60.148l216.323-60.368
	l48.113-539.502H41.884L41.884,94.781z M470.241,218.434l-16.003,179.798l0.048,0.971l-0.067,2.233v-0.02l-11.37,125.719
	l-1.252,11.169L306,575.809v0.005l-0.105,0.091l-135.362-37.715l-9.166-103.939h66.378l4.71,52.852l73.564,19.938l-0.02,0.038v-0.01
	l73.837-20.22l7.803-86.067H233.287l-1.324-14.549l-3.017-34.085l-1.583-18.303h166.144l6.043-66.938H146.498l-1.324-14.54
	l-3.012-34.095l-1.587-18.303h331.25L470.241,218.434z"/>
</svg>
