<?xml version="1.0" encoding="utf-8"?>
<!-- Generator: Adobe Illustrator 15.0.0, SVG Export Plug-In . SVG Version: 6.00 Build 0)  -->
<!DOCTYPE svg PUBLIC "-//W3C//DTD SVG 1.1//EN" "http://www.w3.org/Graphics/SVG/1.1/DTD/svg11.dtd">
<svg version="1.1" id="Layer_1" xmlns="http://www.w3.org/2000/svg" xmlns:xlink="http://www.w3.org/1999/xlink" x="0px" y="0px"
	 width="612px" height="792px" viewBox="0 0 612 792" enable-background="new 0 0 612 792" xml:space="preserve">
<path fill="#FFFFFF" stroke="#000000" stroke-miterlimit="10" d="M596.423,369.12L332.895,105.606
	c-15.166-15.176-39.78-15.176-54.97,0l-54.711,54.726l69.414,69.415c16.137-5.446,34.631-1.793,47.487,11.063
	c12.924,12.938,16.553,31.59,10.963,47.779l66.899,66.909c16.185-5.58,34.865-1.975,47.784,10.973
	c18.073,18.059,18.073,47.334,0,65.403c-18.073,18.073-47.339,18.073-65.422,0c-13.589-13.599-16.949-33.56-10.064-50.304
	l-62.386-62.391l-0.01,164.193c4.408,2.175,8.563,5.082,12.235,8.739c18.068,18.06,18.068,47.325,0,65.422
	c-18.068,18.06-47.354,18.06-65.403,0c-18.063-18.092-19.546-47.358-1.487-65.422c4.465-4.461,8.869-7.831,13.65-10.088V316.311
	c-4.781-2.257-9.18-5.604-13.655-10.093c-13.679-13.674-16.237-33.756-9.218-50.566l-68.052-68.434L15.438,367.9
	c-15.18,15.19-15.085,39.804,0.096,54.984l263.571,263.514c15.171,15.176,39.804,15.176,54.999,0l262.299-262.289
	C611.584,408.924,611.599,384.295,596.423,369.12L596.423,369.12z"/>
</svg>
