<?xml version="1.0" encoding="utf-8"?>
<!-- Generator: Adobe Illustrator 15.0.0, SVG Export Plug-In . SVG Version: 6.00 Build 0)  -->
<!DOCTYPE svg PUBLIC "-//W3C//DTD SVG 1.1//EN" "http://www.w3.org/Graphics/SVG/1.1/DTD/svg11.dtd">
<svg version="1.1" id="Layer_1" xmlns="http://www.w3.org/2000/svg" xmlns:xlink="http://www.w3.org/1999/xlink" x="0px" y="0px"
	 width="612px" height="792px" viewBox="0 0 612 792" enable-background="new 0 0 612 792" xml:space="preserve">
<path fill="#FFFFFF" stroke="#000000" stroke-miterlimit="10" d="M43.184,99.562l47.836,535.944L305.68,694.8l215.252-59.226
	l47.884-536.012H43.184L43.184,99.562z M469.318,226.452l-2.998,34.291L465,276.469H213.196l6.01,66.938h239.809l-1.606,16.596
	L441.95,532.696l-1.138,10.854L306,580.6v0.009l-0.163,0.087l-134.721-35.491l-9.146-101.392h66.053l4.681,52.206l73.091,19.513H306
	v-2.61l73.416-18.527l7.669-84.05H159.029l-16.175-182.247l-1.573-18.565h329.614L469.318,226.452L469.318,226.452z"/>
</svg>
