<?xml version="1.0" encoding="utf-8"?>
<!-- Generator: Adobe Illustrator 15.0.0, SVG Export Plug-In . SVG Version: 6.00 Build 0)  -->
<!DOCTYPE svg PUBLIC "-//W3C//DTD SVG 1.1//EN" "http://www.w3.org/Graphics/SVG/1.1/DTD/svg11.dtd">
<svg version="1.1" id="Layer_1" xmlns="http://www.w3.org/2000/svg" xmlns:xlink="http://www.w3.org/1999/xlink" x="0px" y="0px"
	 width="612px" height="792px" viewBox="0 0 612 792" enable-background="new 0 0 612 792" xml:space="preserve">
<path fill="#FFFFFF" stroke="#000000" stroke-miterlimit="10" d="M524.417,160.461c-58.36-28.797-118.135-31.729-179.335-10.093
	c-56.318,19.909-101.243,55.534-134.64,104.054c-56.51,82.104-97.557,171.69-120.559,269.007
	c-11.781,49.807-19.412,102.635-17.361,154.071c0.167,4.174,0.789,5.374,1.2,14.937h288.625c-0.827-9.562-1.372-6.771-2.089-8.592
	c-15.181-38.757-27.201-79.685-35.516-120.479c-11.943-58.574-18.197-118.235-5.861-177.351
	c17.265-82.777,64.451-142.505,143.997-173.478c45.059-17.533,87.826-12.546,125.335,20.378c0.345,0.301,1.053,0.12,1.971,0.268
	l12.264-18.565C578.828,192.132,552.875,174.509,524.417,160.461L524.417,160.461z M15.95,541.321
	c-2.199,18.757-4.255,36.318-6.407,54.75l53.225,6.388l9.749-56.863C53.129,544.128,34.717,542.736,15.95,541.321L15.95,541.321z
	 M120.42,377.87l-50.064-19.589l-16.18,45.933l51.021,16.353C110.361,406.074,115.219,392.443,120.42,377.87z M356.705,634.427
	c17.093,1.271,34.22,2.146,53.086,3.246c-6.852-14.243-12.938-27.124-19.312-39.852c-0.697-1.382-3.055-2.716-4.656-2.739
	c-14.502-0.211-29.013-0.12-44.423-0.12c3.471,12.565,6.488,24.16,10.021,35.587C351.952,632.275,354.802,634.288,356.705,634.427z
	 M205.273,238.711l-38.035-25.188c-10.194,11.394-20.024,22.376-30.404,33.971l39.101,26.278L205.273,238.711z M326.401,493.882
	c-0.062,1.535,1.32,3.978,2.668,4.585c13.698,6.158,27.54,12.025,42.61,18.518c-0.626-11.914-1.047-21.874-1.759-31.814
	c-0.13-1.788-0.971-4.36-2.295-5.097c-12.58-6.961-25.336-13.612-39.283-21.014C327.583,471.802,326.808,482.832,326.401,493.882
	L326.401,493.882z M315.132,148.81l-26.038-29.553l-35.855,18.637c8.97,10.93,17.438,21.243,26.082,31.767L315.132,148.81z
	 M331.46,383.932c-0.779,1.788,0.249,5.58,1.783,6.961c10.399,9.381,21.152,18.36,33.115,28.597
	c2.739-11.475,5.321-21.702,7.512-32.001c0.387-1.831-0.153-4.857-1.425-5.881c-9.305-7.502-18.91-14.645-28.864-22.237
	C339.206,368.049,334.965,375.833,331.46,383.932z M390.986,133.28c13.292,0.359,26.599,0.201,40.637,0.201
	c-1.401-9.772-2.07-17.179-3.739-24.346c-0.497-2.133-3.706-4.973-5.871-5.154c-13.326-1.081-26.704-1.497-41.363-2.195
	c1.956,9.864,3.447,18.556,5.556,27.1C386.65,130.698,389.299,133.232,390.986,133.28L390.986,133.28z M407.171,303.851
	c0.68-1.272,0.852-3.581,0.139-4.69c-6.531-10.218-13.315-20.277-20.339-30.863l-22.759,20.903l31.47,34.875
	C399.908,316.717,403.69,310.363,407.171,303.851z M431.723,234.394l13.594,25.25c21.271-11.657,23.309-15.874,15.777-32.675
	L431.723,234.394L431.723,234.394z M533.502,156.588c8.85,5.46,18.197,10.112,27.692,15.229l6.359-9.897
	c-11.58-8.467-22.759-16.658-35.443-25.943c-0.497,5.278-1.238,8.965-1.048,12.608C531.216,151.362,531.68,155.47,533.502,156.588
	L533.502,156.588z M521.156,236.526c9.562,1.037,23.906,2.027,33.469,3.074v-12.996c-9.562-2.094-23.906-4.169-33.469-6.326V236.526
	z"/>
</svg>
