<?xml version="1.0" encoding="utf-8"?>
<!-- Generator: Adobe Illustrator 15.0.0, SVG Export Plug-In . SVG Version: 6.00 Build 0)  -->
<!DOCTYPE svg PUBLIC "-//W3C//DTD SVG 1.1//EN" "http://www.w3.org/Graphics/SVG/1.1/DTD/svg11.dtd">
<svg version="1.1" id="Layer_1" xmlns="http://www.w3.org/2000/svg" xmlns:xlink="http://www.w3.org/1999/xlink" x="0px" y="0px"
	 width="612px" height="792px" viewBox="0 0 612 792" enable-background="new 0 0 612 792" xml:space="preserve">
<g>
	<circle fill="#FFFFFF" stroke="#000000" stroke-miterlimit="10" cx="306" cy="396" r="54.506"/>
	<path fill="#FFFFFF" stroke="#000000" stroke-miterlimit="10" d="M513.028,306.112c-10.519-3.825-21.516-7.65-32.991-10.997
		c2.869-11.475,5.26-22.95,7.172-33.947c10.041-63.113-0.956-107.578-31.556-124.791c-9.085-5.259-19.125-7.65-30.601-7.65
		c-33.469,0-76.021,24.863-119.053,66.459c-43.031-41.597-85.584-66.459-119.053-66.459c-11.475,0-21.516,2.391-30.6,7.65
		c-30.6,17.691-41.597,62.156-31.556,124.791c1.913,10.997,4.303,22.472,7.172,33.947c-11.475,3.347-22.472,6.694-32.991,10.997
		C39.206,329.062,6.694,360.619,6.694,396c0,35.381,32.991,66.938,92.278,89.888c10.519,3.825,21.516,7.649,32.991,10.997
		c-2.869,11.475-5.259,22.949-7.172,33.946c-10.041,63.112,0.957,107.578,31.556,124.791c9.084,5.259,19.125,7.649,30.6,7.649
		c33.947,0,76.5-24.862,119.053-66.459c43.031,41.597,85.584,66.459,119.053,66.459c11.476,0,21.516-2.391,30.601-7.649
		c30.6-17.69,41.597-62.156,31.556-124.791c-1.912-10.997-4.303-22.472-7.172-33.946c11.476-3.348,22.473-6.694,32.991-10.997
		c59.766-22.95,92.278-54.507,92.278-89.888C605.307,360.619,572.794,329.062,513.028,306.112z M442.266,160.284
		c19.604,11.475,26.297,46.856,18.169,97.06c-1.435,10.041-3.825,20.56-6.694,31.556c-24.862-5.737-51.159-9.562-78.891-11.953
		c-16.256-22.95-32.99-43.509-49.725-62.156c35.381-34.903,71.24-58.809,100.406-58.809
		C431.747,155.981,437.484,157.416,442.266,160.284z M388.716,443.812c-8.606,15.3-18.647,30.6-29.166,45.9
		c-17.69,1.434-35.381,1.912-53.55,1.912c-18.647,0-36.337-0.479-53.55-1.912c-10.519-15.301-20.082-30.601-28.688-45.9
		c-9.084-15.778-17.691-32.034-25.341-47.812c7.65-15.778,16.256-32.034,25.341-47.812c8.606-15.3,18.646-30.6,29.166-45.9
		c17.69-1.435,35.381-1.913,53.55-1.913c18.646,0,36.337,0.478,53.55,1.913c10.519,15.3,20.081,30.6,28.688,45.9
		c9.084,15.778,17.69,32.034,25.341,47.812C405.928,411.778,397.8,427.557,388.716,443.812z M428.4,428.034
		c7.172,16.734,12.909,32.991,18.168,49.247c-16.256,3.825-33.469,6.693-51.637,9.084c5.737-9.084,11.953-18.646,17.212-28.688
		C417.881,447.638,423.141,437.597,428.4,428.034L428.4,428.034z M306,557.606c-11.475-12.432-22.472-25.819-32.991-39.685
		c10.997,0.479,21.994,0.956,32.991,0.956s21.994-0.478,32.99-0.956C328.472,531.787,317.475,545.175,306,557.606z M217.069,485.888
		c-18.169-2.391-35.381-5.26-51.638-9.085c5.259-15.777,10.997-32.512,18.169-49.246c5.259,9.562,10.519,19.603,16.256,29.165
		C205.594,467.24,211.332,476.325,217.069,485.888L217.069,485.888z M183.6,363.966c-7.172-16.734-12.91-32.991-18.169-49.247
		c16.256-3.825,33.469-6.694,51.638-9.084c-5.738,9.084-11.953,18.647-17.212,28.688C194.119,344.362,188.859,354.403,183.6,363.966
		z M306,234.394c11.475,12.432,22.472,25.819,32.99,39.685c-10.996-0.478-21.993-0.956-32.99-0.956s-21.994,0.478-32.991,0.956
		C283.528,260.212,294.525,246.825,306,234.394z M412.144,334.8l-17.212-28.688c18.168,2.391,35.381,5.26,51.637,9.084
		c-5.259,15.778-10.996,32.513-18.168,49.247C423.141,354.403,417.881,344.362,412.144,334.8z M151.566,257.344
		c-8.128-50.203-1.435-85.584,18.168-97.06c4.781-2.869,10.519-4.303,16.734-4.303c28.688,0,64.547,23.428,100.406,58.809
		c-16.734,18.169-33.469,39.207-49.725,62.156c-27.731,2.391-54.028,6.694-78.891,11.953
		C155.391,277.903,153.478,267.384,151.566,257.344z M33.469,396c0-22.472,27.253-46.378,75.066-64.069
		c9.562-3.825,20.081-7.172,30.6-10.041c7.65,23.906,17.213,49.247,28.688,74.588c-11.475,25.34-21.516,50.203-28.688,74.109
		C73.153,451.463,33.469,422.775,33.469,396L33.469,396z M169.734,631.716c-19.603-11.476-26.297-46.856-18.168-97.06
		c1.434-10.041,3.825-20.56,6.693-31.557c24.863,5.738,51.16,9.562,78.891,11.953c16.256,22.95,32.991,43.51,49.725,62.156
		c-35.381,34.903-71.241,58.81-100.406,58.81C180.253,636.019,174.516,634.584,169.734,631.716L169.734,631.716z M460.435,534.656
		c8.128,50.203,1.435,85.584-18.169,97.06c-4.781,2.868-10.519,4.303-16.734,4.303c-28.688,0-64.547-23.428-100.406-58.81
		c16.734-18.168,33.469-39.206,49.725-62.156c27.731-2.391,54.028-6.693,78.891-11.953
		C456.609,514.097,458.521,524.615,460.435,534.656z M503.466,460.068c-9.562,3.825-20.081,7.172-30.601,10.041
		c-7.649-23.906-17.212-49.247-28.688-74.587c11.476-25.341,21.516-50.203,28.688-74.109
		c65.981,19.125,105.666,47.812,105.666,74.587C578.531,418.472,550.8,442.378,503.466,460.068z"/>
</g>
</svg>
