<?xml version="1.0" encoding="utf-8"?>
<!-- Generator: Adobe Illustrator 15.0.0, SVG Export Plug-In . SVG Version: 6.00 Build 0)  -->
<!DOCTYPE svg PUBLIC "-//W3C//DTD SVG 1.1//EN" "http://www.w3.org/Graphics/SVG/1.1/DTD/svg11.dtd">
<svg version="1.1" id="Layer_1" xmlns="http://www.w3.org/2000/svg" xmlns:xlink="http://www.w3.org/1999/xlink" x="0px" y="0px"
	 width="612px" height="792px" viewBox="0 0 612 792" enable-background="new 0 0 612 792" xml:space="preserve">
<path fill="#FFFFFF" stroke="#000000" stroke-miterlimit="10" d="M171.986,622.297c131.322,17.93,260.311,35.539,391.861,53.492
	c-44.819-74.616-88.486-147.324-132.502-220.626L171.986,622.297L171.986,622.297z M600.912,209.278
	c-11.575,17.385-23.175,34.755-34.735,52.149c-39.704,59.732-79.402,119.464-119.067,179.226c-2.209,3.327-5.073,5.967-1.961,11.097
	c38.327,63.29,76.352,126.766,114.473,190.185c6.016,10.017,12.097,19.995,19.876,29.605
	c7.707-153.923,15.41-307.851,23.112-461.773L600.912,209.278L600.912,209.278z M77.705,406.614
	c1.793,1.697,6.268,2.688,8.353,1.659c36.763-18.068,73.76-35.735,109.72-55.291c11.729-6.373,20.746-17.8,30.849-27.066
	c33.455-30.681,66.856-61.425,100.244-92.173c2.042-1.889,4.461-3.715,5.681-6.096c11.991-23.438,23.776-46.995,35.979-71.231
	c-14.55-5.47-28.344-10.82-42.31-15.688c-1.894-0.66-4.877,0.65-6.928,1.793c-32.326,18.059-65.259,35.157-96.558,54.851
	c-15.658,9.854-28.415,24.375-42.28,37.021c-22.348,20.397-44.667,40.842-66.689,61.592c-5.843,5.508-11.169,11.8-15.721,18.427
	c-15.061,21.932-29.672,44.179-44.954,67.057C61.63,390.301,69.395,398.744,77.705,406.614L77.705,406.614z M212.067,376.631
	c-18.288,77.26-36.466,154.085-55.252,233.435c88.085-56.759,174.138-112.207,259.622-167.282
	C348.41,420.767,280.602,398.816,212.067,376.631L212.067,376.631z M578.46,210.024c-74.426,12.436-147.071,24.571-220.655,36.863
	c25.063,60.966,49.625,120.708,74.884,182.146C481.558,355.599,529.461,283.636,578.46,210.024L578.46,210.024z M215.137,360.829
	c67.019,21.755,132.704,43.079,200.296,65.025c-25.102-61.152-49.343-120.167-74.086-180.43
	C299.201,283.956,257.686,321.919,215.137,360.829L215.137,360.829z M80.473,451.668c-23.768,56.815-46.727,111.699-70.103,167.573
	c44.924-1.329,88.472-2.615,133.516-3.944C122.739,560.733,102.008,507.24,80.473,451.668z M145.465,576.439l1.654-0.363
	c16.031-66.655,32.292-132.852,48.659-202.113c-36.51,18.977-71.336,37.074-107.114,55.672
	C106.923,477.095,126.393,527.159,145.465,576.439L145.465,576.439z M551.521,199.213c-21.319-5.647-42.639-11.312-63.968-16.921
	c-30.657-8.061-61.339-16.022-91.977-24.155c-3.83-1.019-6.599-1.683-8.851,2.931c-10.829,22.185-21.994,44.203-32.995,66.307
	c-0.34,0.684-0.268,1.568-0.531,3.285c66.393-10.06,132.341-20.058,198.278-30.05L551.521,199.213z M427.836,148.752l173.765,48.071
	c-9.964-28.396-19.206-54.726-28.711-81.807l-144.801,32.106L427.836,148.752z M160.196,635.096
	c-21.521-2.481-43.615-0.2-65.441,0.177c-17.93,0.302-35.859,0.985-53.789,1.545c-1.846,0.058-3.687,0.431-5.527,2.419
	c148.233,13.703,296.462,27.406,444.689,41.119l0.302-1.979c-47.517-6.488-95.037-12.977-142.553-19.46
	C278.666,650.831,219.555,641.938,160.196,635.096L160.196,635.096z M13.301,568.097c19.101-44.322,38.121-88.674,57.299-132.962
	c1.917-4.442,1.769-7.459-1.984-11.035c-8.023-7.636-15.477-15.864-24.246-24.987C32.517,457.635,20.956,514.709,9.386,571.778
	l1.295,0.606C11.566,570.965,12.646,569.621,13.301,568.097z M389.777,137.052c32.211-8.31,64.891-14.808,97.38-22.056
	c2.104-0.474,4.159-1.167,6.229-1.76l-0.32-1.587c-45.762,6.153-91.518,12.312-139.584,18.781
	C366.588,136.153,376.686,140.428,389.777,137.052L389.777,137.052z"/>
</svg>
