<?xml version="1.0" encoding="utf-8"?>
<!-- Generator: Adobe Illustrator 15.0.0, SVG Export Plug-In . SVG Version: 6.00 Build 0)  -->
<!DOCTYPE svg PUBLIC "-//W3C//DTD SVG 1.1//EN" "http://www.w3.org/Graphics/SVG/1.1/DTD/svg11.dtd">
<svg version="1.1" id="Capa_1" xmlns="http://www.w3.org/2000/svg" xmlns:xlink="http://www.w3.org/1999/xlink" x="0px" y="0px"
	 width="438.536px" height="438.536px" viewBox="0 0 438.536 438.536" enable-background="new 0 0 438.536 438.536"
	 xml:space="preserve">
<g>
	<path fill="#FFFFFF" stroke="#000000" stroke-miterlimit="10" d="M414.411,24.123C398.333,8.042,378.963,0,356.315,0H82.228
		C59.58,0,40.21,8.042,24.126,24.123C8.045,40.207,0.003,59.576,0.003,82.225v274.084c0,22.646,8.042,42.018,24.123,58.102
		c16.084,16.084,35.454,24.127,58.102,24.127h274.085c22.646,0,42.018-8.043,58.094-24.127
		c16.084-16.084,24.127-35.453,24.127-58.102V82.225C438.532,59.576,430.491,40.204,414.411,24.123z M335.471,168.735
		c0.191,1.713,0.287,4.278,0.287,7.71c0,15.989-2.334,32.025-6.994,48.104c-4.662,16.086-11.801,31.504-21.416,46.254
		c-9.605,14.748-21.074,27.791-34.396,39.115c-13.324,11.319-29.311,20.365-47.968,27.117
		c-18.648,6.762-38.637,10.143-59.953,10.143c-33.116,0-63.76-8.952-91.931-26.836c4.568,0.568,9.329,0.855,14.275,0.855
		c27.6,0,52.439-8.566,74.519-25.701c-12.941-0.185-24.506-4.179-34.688-11.99c-10.185-7.803-17.273-17.699-21.271-29.691
		c4.947,0.76,8.658,1.137,11.132,1.137c4.187,0,9.042-0.76,14.56-2.279c-13.894-2.668-25.598-9.562-35.115-20.696
		c-9.519-11.136-14.277-23.84-14.277-38.114v-0.571c10.085,4.755,19.602,7.229,28.549,7.422
		C93.463,189.1,84.803,172.448,84.803,150.75c0-10.66,2.758-20.747,8.278-30.264c15.035,18.464,33.311,33.213,54.816,44.252
		c21.507,11.038,44.54,17.227,69.092,18.558c-0.95-3.616-1.427-8.186-1.427-13.704c0-16.562,5.853-30.692,17.56-42.399
		c11.703-11.706,25.838-17.561,42.395-17.561c17.516,0,32.078,6.283,43.688,18.846c13.135-2.474,25.893-7.33,38.26-14.56
		c-4.756,14.652-13.613,25.788-26.549,33.402c12.367-1.716,23.879-4.95,34.537-9.708
		C357.458,149.793,347.461,160.166,335.471,168.735z"/>
</g>
</svg>
